<?xml version="1.0" encoding="utf-8"?>
<!-- Generator: Adobe Illustrator 23.0.3, SVG Export Plug-In . SVG Version: 6.00 Build 0)  -->
<svg version="1.1" id="Squaremojis" xmlns="http://www.w3.org/2000/svg" xmlns:xlink="http://www.w3.org/1999/xlink" x="0px"
	 y="0px" viewBox="0 0 32 32" style="enable-background:new 0 0 32 32;" xml:space="preserve">
<style type="text/css">
	.st0{fill:#C352FF;}
	.st1{fill:#870CAF;}
	.st2{fill:#E2BAD9;}
	.st3{fill:#FFFEF8;}
	.st4{fill:#14001C;}
	.st5{fill:#F257FF;}
	.st6{fill:#1A0F33;}
	.st7{fill:#FF3B73;}
	.st8{fill:#190326;}
	.st9{fill:#88D82A;}
	.st10{fill:#4AB541;}
	.st11{fill:#D3ED8C;}
	.st12{fill:#47AF1C;}
	.st13{fill:#10AAFF;}
	.st14{fill:#4278C6;}
	.st15{fill:#ADE4EA;}
	.st16{fill:#FF409B;}
	.st17{fill:#2E004F;}
	.st18{fill:#FFFF0B;}
	.st19{fill:#FFA440;}
	.st20{fill:#C11467;}
	.st21{fill:#89064B;}
	.st22{fill:#3F002F;}
	.st23{fill:#FFFDB3;}
	.st24{fill:#DAE8ED;}
	.st25{fill:#00F3FF;}
	.st26{fill:#FFF317;}
	.st27{fill:#12E9FF;}
	.st28{fill:#C11162;}
	.st29{fill:#AEF416;}
	.st30{fill:#FFA9C6;}
	.st31{fill:#66CC25;}
	.st32{fill:#FFE810;}
	.st33{fill:#CE2EE5;}
	.st34{fill:#790096;}
	.st35{fill:#FFC440;}
	.st36{fill:#284936;}
	.st37{fill:#38664B;}
	.st38{fill:#90C67B;}
	.st39{fill:#FFB36E;}
</style>
<g id="squaremoji_x5F_smile_x5F_purple">
	<path class="st0" d="M20.8,29.6h-9.5c-3.7,0-6.8-3.1-6.8-6.8v-9.5c0-3.7,3.1-6.8,6.8-6.8h9.5c3.7,0,6.8,3.1,6.8,6.8v9.5
		C27.6,26.5,24.5,29.6,20.8,29.6z"/>
	<rect x="9.1" y="9.2" class="st1" width="13.7" height="3.4"/>
	<circle class="st1" cx="11.6" cy="15.7" r="2.3"/>
	<g id="Eye_5_">
		<circle class="st2" cx="11.6" cy="15" r="2.3"/>
		<circle class="st3" cx="11.6" cy="14.7" r="1.8"/>
		<path class="st4" d="M11.8,14.9L11.8,14.9c-0.1,0.1-0.2,0-0.2-0.1c0,0,0,0,0,0c0,0,0,0,0-0.1c0,0,0-0.1-0.1-0.1c0,0-0.1,0-0.1,0
			c-0.1,0-0.2,0.2-0.3,0.3c0,0.2,0.2,0.5,0.4,0.4c0.1,0,0.3-0.1,0.3-0.3c0-0.1,0-0.1,0-0.2C11.9,14.9,11.8,14.9,11.8,14.9z"/>
	</g>
	<circle class="st1" cx="20.7" cy="15.8" r="3.2"/>
	<g id="Eye_4_">
		<circle class="st2" cx="20.7" cy="14.9" r="3.2"/>
		<circle class="st3" cx="20.7" cy="14.4" r="2.5"/>
		<path class="st4" d="M22.1,14.5h-0.4l0.3-0.3c0.1-0.1,0.1-0.2,0-0.2c-0.1-0.1-0.2-0.1-0.2,0l-0.3,0.3v-0.4c0-0.1-0.1-0.2-0.2-0.2
			c-0.1,0-0.2,0.1-0.2,0.2v0.4L20.9,14c-0.1-0.1-0.2-0.1-0.2,0c-0.1,0.1-0.1,0.2,0,0.2l0.3,0.3h-0.4c-0.1,0-0.2,0.1-0.2,0.2
			s0.1,0.2,0.2,0.2h0.4l-0.3,0.3c-0.1,0.1-0.1,0.2,0,0.2c0,0,0.1,0,0.1,0c0,0,0.1,0,0.1,0l0.3-0.3v0.4c0,0.1,0.1,0.2,0.2,0.2
			c0.1,0,0.2-0.1,0.2-0.2v-0.4l0.3,0.3c0,0,0.1,0,0.1,0s0.1,0,0.1,0c0.1-0.1,0.1-0.2,0-0.2l-0.3-0.3h0.4c0.1,0,0.2-0.1,0.2-0.2
			S22.2,14.5,22.1,14.5z"/>
	</g>
	<g id="Skin_Texture_8_">
		<polygon class="st5" points="7.6,15.9 7.7,16.5 7.2,17 6.6,16.7 6.5,16.1 7,15.6 		"/>
		<polygon class="st5" points="6.8,17.5 6.5,17.8 6.1,17.6 6,17.2 6.3,16.9 6.7,17 		"/>
		<polygon class="st5" points="6.2,16.6 5.9,16.8 5.7,16.7 5.6,16.4 5.8,16.2 6.1,16.3 		"/>
	</g>
	<g id="Skin_Texture_3_">
		<polygon class="st5" points="24.4,15.9 24.2,16.5 24.8,17 25.4,16.7 25.5,16.1 25,15.6 		"/>
		<polygon class="st5" points="25.2,17.5 25.5,17.8 25.9,17.6 26,17.2 25.7,16.9 25.2,17 		"/>
		<polygon class="st5" points="25.8,16.6 26,16.8 26.3,16.7 26.4,16.4 26.1,16.2 25.8,16.3 		"/>
	</g>
	<rect x="9.1" y="7.6" class="st6" width="13.7" height="3.4"/>
	<path class="st1" d="M10,21.3c0,2.7,1.7,5,4.3,5.8c0.3,0.1,0.5,0.1,0.8,0.2c2.3,0.4,4.7-0.7,6-2.7c1-1.6,0.5-3.7-1-4.7
		c-1.1-0.7-2.5-0.7-3.6,0c-0.5-1.1-1.7-1.9-3-1.9C11.5,17.9,10,19.4,10,21.3z"/>
	<g id="Mouth_6_">
		<g>
			<path class="st7" d="M15.7,26.5c2.3,0.4,4.7-0.7,6-2.7c1-1.6,0.5-3.7-1-4.7c-1.1-0.7-2.5-0.7-3.6,0c-0.5-1.1-1.7-1.9-3-1.9
				c-1.9,0-3.4,1.5-3.4,3.4c0,2.7,1.7,5,4.3,5.8C15.1,26.4,15.4,26.5,15.7,26.5z"/>
		</g>
		<g>
			<path class="st3" d="M14.2,21.9l1.4,1.2l-1.1,1.4c-0.3,0.4-0.9,0.5-1.3,0.1l0,0c-0.4-0.3-0.5-0.9-0.1-1.3L14.2,21.9z"/>
		</g>
		<g>
			<path class="st8" d="M16.1,23.9c1.3,0.2,2.6-0.4,3.3-1.5c0.2-0.3,0.1-0.8-0.2-1c-0.3-0.2-0.8-0.1-1,0.2c-0.4,0.7-1.3,1-2.1,0.8
				c-0.8-0.2-1.3-1-1.3-1.8c0-0.4-0.3-0.7-0.7-0.7c-0.4,0-0.7,0.3-0.7,0.7c0,1.5,1,2.8,2.4,3.2C15.8,23.9,15.9,23.9,16.1,23.9z"/>
		</g>
	</g>
</g>
</svg>
