<?xml version="1.0" encoding="utf-8"?>
<!-- Generator: Adobe Illustrator 23.0.3, SVG Export Plug-In . SVG Version: 6.00 Build 0)  -->
<svg version="1.1" id="Squaremojis" xmlns="http://www.w3.org/2000/svg" xmlns:xlink="http://www.w3.org/1999/xlink" x="0px"
	 y="0px" viewBox="0 0 32 32" style="enable-background:new 0 0 32 32;" xml:space="preserve">
<style type="text/css">
	.st0{fill:#C352FF;}
	.st1{fill:#870CAF;}
	.st2{fill:#E2BAD9;}
	.st3{fill:#FFFEF8;}
	.st4{fill:#14001C;}
	.st5{fill:#F257FF;}
	.st6{fill:#1A0F33;}
	.st7{fill:#FF3B73;}
	.st8{fill:#190326;}
	.st9{fill:#88D82A;}
	.st10{fill:#4AB541;}
	.st11{fill:#D3ED8C;}
	.st12{fill:#47AF1C;}
	.st13{fill:#10AAFF;}
	.st14{fill:#4278C6;}
	.st15{fill:#ADE4EA;}
	.st16{fill:#FF409B;}
	.st17{fill:#2E004F;}
	.st18{fill:#FFFF0B;}
	.st19{fill:#FFA440;}
	.st20{fill:#C11467;}
	.st21{fill:#89064B;}
	.st22{fill:#3F002F;}
	.st23{fill:#FFFDB3;}
	.st24{fill:#DAE8ED;}
	.st25{fill:#00F3FF;}
	.st26{fill:#FFF317;}
	.st27{fill:#12E9FF;}
	.st28{fill:#C11162;}
	.st29{fill:#AEF416;}
	.st30{fill:#FFA9C6;}
	.st31{fill:#66CC25;}
	.st32{fill:#FFE810;}
	.st33{fill:#CE2EE5;}
	.st34{fill:#790096;}
	.st35{fill:#FFC440;}
	.st36{fill:#284936;}
	.st37{fill:#38664B;}
	.st38{fill:#90C67B;}
	.st39{fill:#FFB36E;}
</style>
<g id="squaremoji_x5F_confused_x5F_green">
	<path class="st9" d="M20.8,29.4h-9.5c-3.7,0-6.8-3.1-6.8-6.8v-9.5c0-3.7,3.1-6.8,6.8-6.8h9.5c3.7,0,6.8,3.1,6.8,6.8v9.5
		C27.6,26.3,24.5,29.4,20.8,29.4z"/>
	<g>
		<circle class="st10" cx="11.7" cy="15.1" r="2.9"/>
		<g id="Eye_7_">
			<circle class="st11" cx="11.8" cy="14.3" r="2.9"/>
			<circle class="st3" cx="11.8" cy="13.9" r="2.2"/>
			<path class="st4" d="M11.4,13.9L11.4,13.9c-0.2,0.2-0.5,0.1-0.5-0.2c0,0,0,0,0,0c0-0.1,0-0.1,0-0.2c0.1-0.1,0-0.3-0.2-0.3
				c-0.1,0-0.2,0-0.3,0c-0.4,0.1-0.7,0.5-0.8,0.9c-0.1,0.7,0.5,1.3,1.2,1.2c0.4-0.1,0.8-0.4,0.9-0.8c0-0.2,0-0.4,0-0.6
				C11.7,13.8,11.5,13.8,11.4,13.9z"/>
		</g>
	</g>
	<g>
		<circle class="st10" cx="20.4" cy="15.1" r="2.9"/>
		<g id="Eye_6_">
			<circle class="st11" cx="20.3" cy="14.3" r="2.9"/>
			<circle class="st3" cx="20.3" cy="13.9" r="2.2"/>
			<path class="st4" d="M21.8,14.2L21.8,14.2c-0.1,0.1-0.2,0-0.2-0.1c0,0,0,0,0,0c0,0,0,0,0-0.1c0-0.1,0-0.1-0.1-0.1
				c0,0-0.1,0-0.1,0c-0.2,0-0.3,0.2-0.3,0.4c0,0.3,0.2,0.6,0.5,0.5c0.2,0,0.3-0.2,0.4-0.3c0-0.1,0-0.2,0-0.3
				C21.9,14.1,21.8,14.1,21.8,14.2z"/>
		</g>
	</g>
	<path class="st10" d="M18.9,6.8c-0.5,0.5-1.2,0.8-1.8,0.8c-1,0-1.9-0.6-2.3-1.4c-0.2,0.5-0.4,1-0.5,1.6c-0.4,2.2,0.2,4.4,1.5,6
		c0-0.2,0.1-0.4,0.1-0.6c0.5-2.5,2.2-4.5,4.4-5.4C20,7.2,19.4,6.9,18.9,6.8z"/>
	<path id="Hair_3_" class="st7" d="M16,6.4l2.2-1.8v0c-1-1.5-3.1-1.3-3.9,0.2c-0.3,0.6-0.5,1.3-0.7,2c-0.4,2.2,0.2,4.4,1.5,6
		c0-0.2,0.1-0.4,0.1-0.6c0.5-2.5,2.2-4.5,4.4-5.4v0c-0.5-0.7-1.4-1.1-2.3-0.8L16,6.4z"/>
	<g id="Heart_6_">
		<path class="st12" d="M6.8,16.5c0-0.1,0.1-0.2,0.2-0.3c0.1-0.2,0.3-0.3,0.5-0.3c0.3-0.1,0.7,0.1,0.8,0.5c0.1,0.3,0.1,0.6,0,0.8
			c-0.1,0.2-0.2,0.4-0.4,0.6c-0.2,0.3-0.4,0.5-0.6,0.8c0,0,0,0,0,0c-0.4-0.2-0.7-0.4-1.1-0.6c-0.2-0.1-0.4-0.3-0.5-0.5
			c-0.1-0.2-0.2-0.4-0.2-0.6c0-0.3,0.3-0.6,0.6-0.7c0.2,0,0.4,0,0.5,0.1C6.6,16.4,6.7,16.4,6.8,16.5z"/>
	</g>
	<g id="Heart_3_">
		<path class="st12" d="M25.4,16.5c0-0.1-0.1-0.2-0.2-0.3c-0.1-0.2-0.3-0.3-0.5-0.3c-0.3-0.1-0.7,0.1-0.8,0.5
			c-0.1,0.3-0.1,0.6,0,0.8c0.1,0.2,0.2,0.4,0.4,0.6c0.2,0.3,0.4,0.5,0.6,0.8c0,0,0,0,0,0c0.4-0.2,0.7-0.4,1.1-0.6
			c0.2-0.1,0.4-0.3,0.5-0.5c0.1-0.2,0.2-0.4,0.2-0.6c0-0.3-0.3-0.6-0.6-0.7c-0.2,0-0.4,0-0.5,0.1C25.5,16.4,25.4,16.4,25.4,16.5z"/>
	</g>
	<path class="st10" d="M21.8,21.9c-0.7-2.6-3.1-4.4-5.7-4.4c-0.3,0-0.5,0-0.8,0c-2.3,0.3-4.3,2-5,4.2c-0.5,1.8,0.5,3.7,2.3,4.2
		c1.3,0.4,2.6,0,3.4-0.9c0.8,0.9,2.1,1.3,3.4,1C21.2,25.6,22.3,23.7,21.8,21.9z"/>
	<g id="Mouth_7_">
		<g>
			<path class="st7" d="M15.3,16.3c-2.3,0.3-4.3,2-5,4.2c-0.5,1.8,0.5,3.7,2.3,4.2c1.3,0.4,2.6,0,3.4-0.9c0.8,0.9,2.1,1.3,3.4,1
				c1.8-0.5,2.9-2.4,2.3-4.2c-0.7-2.6-3.1-4.4-5.7-4.4C15.8,16.2,15.5,16.3,15.3,16.3z"/>
		</g>
		<g>
			<path class="st3" d="M18,20.4l-1.7-0.7L17,18c0.2-0.5,0.7-0.7,1.2-0.5l0,0c0.5,0.2,0.7,0.7,0.5,1.2L18,20.4z"/>
		</g>
		<g>
			<path class="st8" d="M15.6,18.9c-1.3,0.2-2.4,1.1-2.8,2.4c-0.1,0.4,0.1,0.8,0.5,0.9c0.4,0.1,0.8-0.1,0.9-0.5
				c0.2-0.8,1-1.4,1.8-1.3c0.8,0,1.6,0.6,1.8,1.4c0.1,0.4,0.5,0.6,0.9,0.5c0.4-0.1,0.6-0.5,0.5-0.9c-0.4-1.4-1.7-2.4-3.2-2.4
				C15.9,18.9,15.8,18.9,15.6,18.9z"/>
		</g>
	</g>
</g>
</svg>
