<?xml version="1.0" encoding="utf-8"?>
<!-- Generator: Adobe Illustrator 23.0.3, SVG Export Plug-In . SVG Version: 6.00 Build 0)  -->
<svg version="1.1" id="Squaremojis" xmlns="http://www.w3.org/2000/svg" xmlns:xlink="http://www.w3.org/1999/xlink" x="0px"
	 y="0px" viewBox="0 0 32 32" style="enable-background:new 0 0 32 32;" xml:space="preserve">
<style type="text/css">
	.st0{fill:#C352FF;}
	.st1{fill:#870CAF;}
	.st2{fill:#E2BAD9;}
	.st3{fill:#FFFEF8;}
	.st4{fill:#14001C;}
	.st5{fill:#F257FF;}
	.st6{fill:#1A0F33;}
	.st7{fill:#FF3B73;}
	.st8{fill:#190326;}
	.st9{fill:#88D82A;}
	.st10{fill:#4AB541;}
	.st11{fill:#D3ED8C;}
	.st12{fill:#47AF1C;}
	.st13{fill:#10AAFF;}
	.st14{fill:#4278C6;}
	.st15{fill:#ADE4EA;}
	.st16{fill:#FF409B;}
	.st17{fill:#2E004F;}
	.st18{fill:#FFFF0B;}
	.st19{fill:#FFA440;}
	.st20{fill:#C11467;}
	.st21{fill:#89064B;}
	.st22{fill:#3F002F;}
	.st23{fill:#FFFDB3;}
	.st24{fill:#DAE8ED;}
	.st25{fill:#00F3FF;}
	.st26{fill:#FFF317;}
	.st27{fill:#12E9FF;}
	.st28{fill:#C11162;}
	.st29{fill:#AEF416;}
	.st30{fill:#FFA9C6;}
	.st31{fill:#66CC25;}
	.st32{fill:#FFE810;}
	.st33{fill:#CE2EE5;}
	.st34{fill:#790096;}
	.st35{fill:#FFC440;}
	.st36{fill:#284936;}
	.st37{fill:#38664B;}
	.st38{fill:#90C67B;}
	.st39{fill:#FFB36E;}
</style>
<g id="squaremoji_x5F_monster_x5F_purple">
	<path class="st0" d="M20.7,29.3h-9.5c-3.7,0-6.8-3.1-6.8-6.8v-9.5c0-3.7,3.1-6.8,6.8-6.8h9.5c3.7,0,6.8,3.1,6.8,6.8v9.5
		C27.5,26.2,24.5,29.3,20.7,29.3z"/>
	<circle class="st1" cx="9.6" cy="17.1" r="3.2"/>
	<g id="Eye_27_">
		<circle class="st2" cx="9.6" cy="16.2" r="3.2"/>
		<circle class="st3" cx="9.6" cy="15.7" r="2.5"/>
	</g>
	<circle class="st1" cx="22.2" cy="17.1" r="3.2"/>
	<g id="Eye_26_">
		<circle class="st2" cx="22.2" cy="16.2" r="3.2"/>
		<circle class="st3" cx="22.2" cy="15.7" r="2.5"/>
	</g>
	<circle class="st1" cx="15.9" cy="11.9" r="3.2"/>
	<ellipse transform="matrix(0.3398 -0.9405 0.9405 0.3398 -4.3012 15.6826)" class="st1" cx="9" cy="10.9" rx="1.6" ry="1"/>
	<g id="Eye_25_">
		<circle class="st2" cx="15.9" cy="11" r="3.2"/>
		<circle class="st3" cx="15.9" cy="10.5" r="2.5"/>
	</g>
	<path id="Legs2_5_" class="st1" d="M16.2,17.9c-0.1,0-0.2,0-0.2,0c-0.1,0-0.2,0-0.2,0c-3.4,0-6.2,2.8-6.2,6.1
		c0,0.7,0.5,1.3,1.2,1.3c0.7,0,1.3-0.6,1.3-1.3c0-0.9,0.3-1.7,0.9-2.4c0.6-0.7,1.7-0.3,1.7,0.6v2.5c0,0.7,0.5,1.3,1.2,1.3
		c0.7,0,1.3-0.5,1.3-1.3v-2.7c0-0.8,1-1.3,1.6-0.7c0.7,0.7,1.1,1.6,1.1,2.6c0,0.7,0.5,1.2,1.2,1.3c0.7,0.1,1.4-0.5,1.4-1.3
		C22.4,20.7,19.6,17.9,16.2,17.9z"/>
	<path id="Legs2_4_" class="st7" d="M16.2,16c-0.1,0-0.2,0-0.3,0c-0.1,0-0.2,0-0.3,0C12,16,9,19,9,22.7c0,0.8,0.6,1.4,1.3,1.4
		c0.8,0,1.4-0.6,1.4-1.4c0-1,0.4-1.9,0.9-2.6c0.6-0.7,1.8-0.3,1.8,0.7v2.7c0,0.7,0.6,1.4,1.3,1.4c0.8,0,1.4-0.6,1.4-1.4v-2.9
		c0-0.9,1.1-1.4,1.7-0.7c0.7,0.7,1.2,1.7,1.2,2.8c0,0.7,0.6,1.3,1.3,1.4c0.8,0.1,1.5-0.6,1.5-1.4C22.9,19,19.9,16,16.2,16z"/>
	<g>
		<path class="st28" d="M15.8,23.9c-0.7,0-1.3-0.7-1.3-1.4v1c0,0.7,0.6,1.4,1.3,1.4c0.8,0,1.4-0.6,1.4-1.4v-1
			C17.3,23.3,16.6,24,15.8,23.9z"/>
		<path class="st28" d="M14.5,19.8c0-1-1.2-1.4-1.8-0.7c-0.6,0.7-0.9,1.6-0.9,2.6c0,0.8-0.6,1.4-1.4,1.4c-0.6,0-1.2-0.5-1.3-1.1
			c0,0.2,0,0.4,0,0.7c0,0.8,0.6,1.4,1.3,1.4c0.8,0,1.4-0.6,1.4-1.4c0-1,0.4-1.9,0.9-2.6c0.6-0.7,1.8-0.3,1.8,0.7V19.8z"/>
		<path class="st28" d="M21.4,23.1c-0.7,0-1.3-0.7-1.3-1.4c0-1.1-0.5-2.1-1.2-2.8c-0.6-0.6-1.7-0.2-1.7,0.7v1c0-0.9,1.1-1.4,1.7-0.7
			c0.7,0.7,1.2,1.7,1.2,2.8c0,0.7,0.6,1.3,1.3,1.4c0.8,0.1,1.5-0.6,1.5-1.4c0-0.2,0-0.5,0-0.7C22.7,22.7,22.1,23.1,21.4,23.1z"/>
	</g>
	<ellipse transform="matrix(0.6026 -0.7981 0.7981 0.6026 -7.6868 19.0944)" class="st21" cx="15.3" cy="17.3" rx="0.5" ry="0.4"/>
	<ellipse transform="matrix(0.7981 -0.6026 0.6026 0.7981 -7.0715 13.4291)" class="st21" cx="16.5" cy="17.3" rx="0.4" ry="0.5"/>
	<g id="Skin_Texture_15_">
		<polygon class="st5" points="24.4,21 24.3,21.7 24.9,22.1 25.5,21.9 25.6,21.2 25.1,20.8 		"/>
		<polygon class="st5" points="25.2,22.6 25.6,22.9 26,22.8 26.1,22.3 25.7,22 25.3,22.2 		"/>
		<polygon class="st5" points="25.9,21.8 26.1,22 26.4,21.9 26.5,21.6 26.2,21.4 25.9,21.5 		"/>
	</g>
	<g id="Skin_Texture_14_">
		<polygon class="st5" points="7.7,21 7.8,21.7 7.3,22.1 6.7,21.9 6.5,21.2 7.1,20.8 		"/>
		<polygon class="st5" points="6.9,22.6 6.6,22.9 6.1,22.8 6.1,22.3 6.4,22 6.8,22.2 		"/>
		<polygon class="st5" points="6.3,21.8 6,22 5.7,21.9 5.7,21.6 5.9,21.4 6.2,21.5 		"/>
	</g>
	<path class="st29" d="M9.5,9.3C9,9.1,8.6,8.8,8.4,8.3C8.2,8,8,7.5,8,7.1l0-1.8C8,5,7.8,4.6,7.4,4.6C7,4.5,6.6,4.9,6.7,5.4
		c0,0.4-0.5,0.6-0.7,0.3L5.8,5.4C5.5,5,4.8,4.9,4.4,5.3C4,5.6,4,6.3,4.5,6.7l0.2,0.2C5,7.1,4.8,7.6,4.4,7.6C4,7.6,3.6,7.9,3.7,8.4
		C3.7,8.7,4,9,4.4,9l1.8,0C6.6,9,7,9.1,7.4,9.3c0.4,0.3,0.8,0.6,1,1.1v0c0.2,0.6,1,0.7,1.4,0.3l0,0C10.2,10.3,10,9.5,9.5,9.3
		L9.5,9.3z"/>
	<ellipse transform="matrix(0.9405 -0.3398 0.3398 0.9405 -2.3383 8.4585)" class="st1" cx="23" cy="10.9" rx="1" ry="1.6"/>
	<path class="st29" d="M22.5,9.3c0.5-0.2,0.8-0.5,1.1-1C23.8,8,24,7.5,24,7.1V5.3c0-0.4,0.3-0.7,0.6-0.7c0.5-0.1,0.8,0.3,0.8,0.8
		c0,0.4,0.5,0.6,0.7,0.3l0.2-0.2c0.3-0.4,0.9-0.5,1.3-0.2c0.4,0.4,0.4,1.1,0,1.4l-0.2,0.2c-0.3,0.3-0.1,0.8,0.3,0.7
		c0.4,0,0.8,0.3,0.8,0.8C28.3,8.7,28,9,27.6,9l-1.8,0c-0.4,0-0.9,0.1-1.2,0.3c-0.4,0.3-0.8,0.6-1,1.1v0c-0.2,0.6-1,0.7-1.4,0.3l0,0
		C21.8,10.3,22,9.5,22.5,9.3L22.5,9.3z"/>
	<path class="st4" d="M9.7,16.1H9.3l0.2-0.2c0,0,0-0.1,0-0.2c0,0-0.1,0-0.2,0l-0.2,0.2v-0.3c0-0.1-0.1-0.1-0.1-0.1
		c-0.1,0-0.1,0.1-0.1,0.1v0.3l-0.2-0.2c0,0-0.1,0-0.2,0c0,0,0,0.1,0,0.2l0.2,0.2H8.4c-0.1,0-0.1,0.1-0.1,0.1s0.1,0.1,0.1,0.1h0.3
		l-0.2,0.2c0,0,0,0.1,0,0.2c0,0,0.1,0,0.1,0c0,0,0.1,0,0.1,0l0.2-0.2v0.3C8.9,17,8.9,17,9,17c0.1,0,0.1-0.1,0.1-0.1v-0.3l0.2,0.2
		c0,0,0.1,0,0.1,0s0.1,0,0.1,0c0,0,0-0.1,0-0.2l-0.2-0.2h0.3c0.1,0,0.1-0.1,0.1-0.1S9.7,16.1,9.7,16.1z"/>
	<path class="st4" d="M23.6,16.1h-0.3l0.2-0.2c0,0,0-0.1,0-0.2c0,0-0.1,0-0.2,0l-0.2,0.2v-0.3c0-0.1-0.1-0.1-0.1-0.1
		s-0.1,0.1-0.1,0.1v0.3l-0.2-0.2c0,0-0.1,0-0.2,0c0,0,0,0.1,0,0.2l0.2,0.2h-0.3c-0.1,0-0.1,0.1-0.1,0.1s0.1,0.1,0.1,0.1h0.3
		l-0.2,0.2c0,0,0,0.1,0,0.2c0,0,0.1,0,0.1,0c0,0,0.1,0,0.1,0l0.2-0.2v0.3c0,0.1,0.1,0.1,0.1,0.1s0.1-0.1,0.1-0.1v-0.3l0.2,0.2
		c0,0,0.1,0,0.1,0c0,0,0.1,0,0.1,0c0,0,0-0.1,0-0.2l-0.2-0.2h0.3c0.1,0,0.1-0.1,0.1-0.1S23.7,16.1,23.6,16.1z"/>
	<path class="st4" d="M16.6,10.5h-0.3l0.2-0.2c0,0,0-0.1,0-0.2c0,0-0.1,0-0.2,0l-0.2,0.2V10c0-0.1-0.1-0.1-0.1-0.1s-0.1,0.1-0.1,0.1
		v0.3l-0.2-0.2c0,0-0.1,0-0.2,0c0,0,0,0.1,0,0.2l0.2,0.2h-0.3c-0.1,0-0.1,0.1-0.1,0.1s0.1,0.1,0.1,0.1h0.3L15.5,11c0,0,0,0.1,0,0.2
		c0,0,0.1,0,0.1,0s0.1,0,0.1,0l0.2-0.2v0.3c0,0.1,0.1,0.1,0.1,0.1s0.1-0.1,0.1-0.1v-0.3l0.2,0.2c0,0,0.1,0,0.1,0s0.1,0,0.1,0
		c0,0,0-0.1,0-0.2l-0.2-0.2h0.3c0.1,0,0.1-0.1,0.1-0.1S16.7,10.5,16.6,10.5z"/>
</g>
</svg>
